STARTFONT 2.1
COMMENT $XConsortium: lubI08.bdf,v 1.9 94/04/02 16:24:50 gildea Exp $
COMMENT  (c) Copyright Bigelow & Holmes 1986, 1985. Lucida is a registered
COMMENT  trademark of Bigelow & Holmes. See LEGAL NOTICE file for terms 
COMMENT  of the license. 
COMMENT  
COMMENT  Translation to ISO8859-2 by Cub Soft;  Petr.Kolar@vslib.cz
COMMENT  
FONT -B&H-LucidaBright-Medium-I-Normal--11-80-100-100-P-63-ISO8859-2
SIZE 8 100 100
FONTBOUNDINGBOX 17 14 -5 -3
STARTPROPERTIES 20
COMMENT Begin LogicalFontDescription
FONTNAME_REGISTRY ""
FOUNDRY "B&H"
FAMILY_NAME "LucidaBright"
WEIGHT_NAME "Medium"
SLANT "I"
SETWIDTH_NAME "Normal"
ADD_STYLE_NAME ""
PIXEL_SIZE 11
POINT_SIZE 80
RESOLUTION_X 100
RESOLUTION_Y 100
SPACING "P"
AVERAGE_WIDTH 63
CHARSET_REGISTRY "ISO8859"
CHARSET_ENCODING "2"
COMMENT END LogicalFontDescription
FONT_ASCENT 10
FONT_DESCENT 3
DEFAULT_CHAR 0
COPYRIGHT "Copyright Bigelow & Holmes 1986, 1985., Copyright 1996 Cub Soft"
FACE_NAME "Lucida Bright Italic"
ENDPROPERTIES
CHARS 191
STARTCHAR space
ENCODING 32
SWIDTH 333 0
DWIDTH 3 0
BBX 1 1 0 0
BITMAP
00
ENDCHAR
STARTCHAR exclam
ENCODING 33
SWIDTH 265 0
DWIDTH 3 0
BBX 3 9 1 0
BITMAP
20
20
40
40
40
40
40
00
80
ENDCHAR
STARTCHAR quotedbl
ENCODING 34
SWIDTH 377 0
DWIDTH 4 0
BBX 3 4 2 5
BITMAP
a0
a0
a0
a0
ENDCHAR
STARTCHAR numbersign
ENCODING 35
SWIDTH 608 0
DWIDTH 7 0
BBX 7 9 1 0
BITMAP
1a
14
7e
28
28
fc
50
90
b0
ENDCHAR
STARTCHAR dollar
ENCODING 36
SWIDTH 608 0
DWIDTH 7 0
BBX 5 10 2 -1
BITMAP
78
60
60
60
20
70
50
d0
e0
40
ENDCHAR
STARTCHAR percent
ENCODING 37
SWIDTH 759 0
DWIDTH 8 0
BBX 8 9 1 0
BITMAP
71
52
54
6c
16
19
29
4a
86
ENDCHAR
STARTCHAR ampersand
ENCODING 38
SWIDTH 727 0
DWIDTH 8 0
BBX 8 9 1 0
BITMAP
1c
24
24
38
57
92
8c
cc
76
ENDCHAR
STARTCHAR apostrophe
ENCODING 39
SWIDTH 265 0
DWIDTH 3 0
BBX 2 4 2 5
BITMAP
c0
40
40
80
ENDCHAR
STARTCHAR parenleft
ENCODING 40
SWIDTH 310 0
DWIDTH 3 0
BBX 4 12 1 -3
BITMAP
30
20
40
40
80
80
80
80
80
80
80
40
ENDCHAR
STARTCHAR parenright
ENCODING 41
SWIDTH 310 0
DWIDTH 3 0
BBX 4 11 0 -2
BITMAP
20
30
10
10
10
30
20
20
20
40
80
ENDCHAR
STARTCHAR asterisk
ENCODING 42
SWIDTH 458 0
DWIDTH 5 0
BBX 4 4 2 5
BITMAP
20
f0
60
a0
ENDCHAR
STARTCHAR plus
ENCODING 43
SWIDTH 608 0
DWIDTH 7 0
BBX 6 8 1 0
BITMAP
10
10
10
10
fc
20
20
20
ENDCHAR
STARTCHAR comma
ENCODING 44
SWIDTH 265 0
DWIDTH 3 0
BBX 2 4 0 -2
BITMAP
40
c0
40
80
ENDCHAR
STARTCHAR minus
ENCODING 45
SWIDTH 608 0
DWIDTH 7 0
BBX 6 1 1 3
BITMAP
fc
ENDCHAR
STARTCHAR period
ENCODING 46
SWIDTH 265 0
DWIDTH 3 0
BBX 2 1 1 0
BITMAP
c0
ENDCHAR
STARTCHAR slash
ENCODING 47
SWIDTH 458 0
DWIDTH 5 0
BBX 7 11 0 -2
BITMAP
02
04
04
08
10
10
20
20
40
40
80
ENDCHAR
STARTCHAR zero
ENCODING 48
SWIDTH 608 0
DWIDTH 7 0
BBX 6 9 1 0
BITMAP
38
6c
44
84
84
88
88
98
70
ENDCHAR
STARTCHAR one
ENCODING 49
SWIDTH 608 0
DWIDTH 7 0
BBX 4 9 1 0
BITMAP
70
10
10
20
20
20
20
20
f0
ENDCHAR
STARTCHAR two
ENCODING 50
SWIDTH 608 0
DWIDTH 7 0
BBX 6 9 1 0
BITMAP
38
44
04
04
18
20
60
40
f8
ENDCHAR
STARTCHAR three
ENCODING 51
SWIDTH 608 0
DWIDTH 7 0
BBX 6 9 1 0
BITMAP
38
4c
04
08
30
18
08
98
f0
ENDCHAR
STARTCHAR four
ENCODING 52
SWIDTH 608 0
DWIDTH 7 0
BBX 6 9 1 0
BITMAP
0c
14
28
48
88
fc
08
10
38
ENDCHAR
STARTCHAR five
ENCODING 53
SWIDTH 608 0
DWIDTH 7 0
BBX 6 9 1 0
BITMAP
3c
40
40
70
18
08
08
90
f0
ENDCHAR
STARTCHAR six
ENCODING 54
SWIDTH 608 0
DWIDTH 7 0
BBX 6 9 1 0
BITMAP
1c
24
40
f8
c8
88
88
98
70
ENDCHAR
STARTCHAR seven
ENCODING 55
SWIDTH 608 0
DWIDTH 7 0
BBX 6 9 2 0
BITMAP
7c
08
08
10
20
20
40
c0
80
ENDCHAR
STARTCHAR eight
ENCODING 56
SWIDTH 608 0
DWIDTH 7 0
BBX 6 9 1 0
BITMAP
38
44
44
78
70
88
88
88
70
ENDCHAR
STARTCHAR nine
ENCODING 57
SWIDTH 608 0
DWIDTH 7 0
BBX 6 9 1 0
BITMAP
38
6c
44
44
4c
7c
08
90
e0
ENDCHAR
STARTCHAR colon
ENCODING 58
SWIDTH 265 0
DWIDTH 3 0
BBX 2 6 1 0
BITMAP
40
00
00
00
00
80
ENDCHAR
STARTCHAR semicolon
ENCODING 59
SWIDTH 265 0
DWIDTH 3 0
BBX 3 8 0 -2
BITMAP
60
00
00
00
40
c0
40
80
ENDCHAR
STARTCHAR less
ENCODING 60
SWIDTH 608 0
DWIDTH 7 0
BBX 7 8 1 0
BITMAP
02
0c
10
e0
40
30
08
04
ENDCHAR
STARTCHAR equal
ENCODING 61
SWIDTH 608 0
DWIDTH 7 0
BBX 7 3 0 2
BITMAP
fe
00
fe
ENDCHAR
STARTCHAR greater
ENCODING 62
SWIDTH 608 0
DWIDTH 7 0
BBX 7 8 0 0
BITMAP
40
30
08
04
06
18
60
80
ENDCHAR
STARTCHAR question
ENCODING 63
SWIDTH 471 0
DWIDTH 5 0
BBX 4 9 2 0
BITMAP
f0
90
10
30
60
40
80
00
80
ENDCHAR
STARTCHAR at
ENCODING 64
SWIDTH 861 0
DWIDTH 9 0
BBX 9 9 1 0
BITMAP
1f00
2080
4e80
9280
a280
a480
9b00
4000
3c00
ENDCHAR
STARTCHAR A
ENCODING 65
SWIDTH 747 0
DWIDTH 8 0
BBX 8 9 0 0
BITMAP
04
0c
0c
14
32
3e
42
42
c7
ENDCHAR
STARTCHAR B
ENCODING 66
SWIDTH 606 0
DWIDTH 7 0
BBX 7 9 0 0
BITMAP
3e
12
22
24
38
24
66
44
f8
ENDCHAR
STARTCHAR C
ENCODING 67
SWIDTH 714 0
DWIDTH 8 0
BBX 7 9 1 0
BITMAP
1e
22
40
c0
80
80
80
c4
78
ENDCHAR
STARTCHAR D
ENCODING 68
SWIDTH 770 0
DWIDTH 8 0
BBX 9 9 0 0
BITMAP
3f00
3180
2080
2080
2080
2180
6100
4200
fc00
ENDCHAR
STARTCHAR E
ENCODING 69
SWIDTH 569 0
DWIDTH 6 0
BBX 7 9 0 0
BITMAP
3e
32
20
24
3c
28
60
44
fc
ENDCHAR
STARTCHAR F
ENCODING 70
SWIDTH 551 0
DWIDTH 6 0
BBX 7 9 0 0
BITMAP
3e
32
20
24
3c
28
40
40
e0
ENDCHAR
STARTCHAR G
ENCODING 71
SWIDTH 756 0
DWIDTH 8 0
BBX 7 9 1 0
BITMAP
1e
22
40
c0
80
8e
84
c4
7c
ENDCHAR
STARTCHAR H
ENCODING 72
SWIDTH 776 0
DWIDTH 9 0
BBX 10 9 0 0
BITMAP
39c0
3080
2180
2100
3f00
2100
6100
4300
e700
ENDCHAR
STARTCHAR I
ENCODING 73
SWIDTH 325 0
DWIDTH 4 0
BBX 5 9 0 0
BITMAP
38
10
30
20
20
20
60
40
e0
ENDCHAR
STARTCHAR J
ENCODING 74
SWIDTH 422 0
DWIDTH 5 0
BBX 6 11 0 -2
BITMAP
1c
08
08
18
10
10
10
10
10
a0
e0
ENDCHAR
STARTCHAR K
ENCODING 75
SWIDTH 698 0
DWIDTH 8 0
BBX 8 9 0 0
BITMAP
7b
32
24
38
30
78
48
44
ee
ENDCHAR
STARTCHAR L
ENCODING 76
SWIDTH 572 0
DWIDTH 6 0
BBX 6 9 0 0
BITMAP
78
30
20
20
20
20
40
44
fc
ENDCHAR
STARTCHAR M
ENCODING 77
SWIDTH 865 0
DWIDTH 10 0
BBX 11 9 0 0
BITMAP
30e0
30c0
3140
3b80
2a80
2c80
4c80
4180
e380
ENDCHAR
STARTCHAR N
ENCODING 78
SWIDTH 762 0
DWIDTH 8 0
BBX 10 9 0 0
BITMAP
21c0
3100
3100
2900
2900
2500
4700
4200
e200
ENDCHAR
STARTCHAR O
ENCODING 79
SWIDTH 783 0
DWIDTH 9 0
BBX 8 9 1 0
BITMAP
1e
22
43
c1
83
82
82
c4
78
ENDCHAR
STARTCHAR P
ENCODING 80
SWIDTH 579 0
DWIDTH 6 0
BBX 7 9 0 0
BITMAP
3c
32
22
24
38
60
40
40
e0
ENDCHAR
STARTCHAR Q
ENCODING 81
SWIDTH 788 0
DWIDTH 9 0
BBX 9 11 1 -2
BITMAP
1c00
2200
4300
c100
8300
8200
8200
c400
7800
0800
0780
ENDCHAR
STARTCHAR R
ENCODING 82
SWIDTH 686 0
DWIDTH 8 0
BBX 7 9 0 0
BITMAP
7c
26
22
24
38
68
48
44
e6
ENDCHAR
STARTCHAR S
ENCODING 83
SWIDTH 549 0
DWIDTH 6 0
BBX 6 9 1 0
BITMAP
3c
64
44
20
18
08
8c
88
f0
ENDCHAR
STARTCHAR T
ENCODING 84
SWIDTH 663 0
DWIDTH 7 0
BBX 7 9 2 0
BITMAP
fe
92
10
30
20
20
20
20
f0
ENDCHAR
STARTCHAR U
ENCODING 85
SWIDTH 727 0
DWIDTH 8 0
BBX 8 9 2 0
BITMAP
e7
42
42
44
84
84
84
c8
78
ENDCHAR
STARTCHAR V
ENCODING 86
SWIDTH 656 0
DWIDTH 7 0
BBX 8 9 1 0
BITMAP
e3
42
42
44
4c
68
30
30
20
ENDCHAR
STARTCHAR W
ENCODING 87
SWIDTH 878 0
DWIDTH 10 0
BBX 10 9 1 0
BITMAP
e4c0
4c80
4c80
5500
5500
6600
6600
6400
4400
ENDCHAR
STARTCHAR X
ENCODING 88
SWIDTH 624 0
DWIDTH 7 0
BBX 9 9 0 0
BITMAP
3980
1100
1200
0c00
0800
1400
2400
4200
c700
ENDCHAR
STARTCHAR Y
ENCODING 89
SWIDTH 663 0
DWIDTH 7 0
BBX 7 9 2 0
BITMAP
e6
44
4c
38
30
20
20
20
70
ENDCHAR
STARTCHAR Z
ENCODING 90
SWIDTH 633 0
DWIDTH 7 0
BBX 7 9 1 0
BITMAP
3e
24
4c
08
10
20
60
44
fc
ENDCHAR
STARTCHAR bracketleft
ENCODING 91
SWIDTH 310 0
DWIDTH 3 0
BBX 4 11 1 -2
BITMAP
30
20
60
40
40
40
40
40
80
80
c0
ENDCHAR
STARTCHAR backslash
ENCODING 92
SWIDTH 458 0
DWIDTH 5 0
BBX 3 11 2 -2
BITMAP
80
80
40
40
40
40
40
40
40
20
20
ENDCHAR
STARTCHAR bracketright
ENCODING 93
SWIDTH 310 0
DWIDTH 3 0
BBX 4 11 0 -2
BITMAP
30
10
10
20
20
20
20
20
20
40
c0
ENDCHAR
STARTCHAR asciicircum
ENCODING 94
SWIDTH 608 0
DWIDTH 7 0
BBX 6 8 1 1
BITMAP
08
18
28
28
48
44
84
84
ENDCHAR
STARTCHAR underscore
ENCODING 95
SWIDTH 500 0
DWIDTH 5 0
BBX 5 1 0 -1
BITMAP
f8
ENDCHAR
STARTCHAR grave
ENCODING 96
SWIDTH 560 0
DWIDTH 6 0
BBX 2 2 3 7
BITMAP
80
40
ENDCHAR
STARTCHAR a
ENCODING 97
SWIDTH 608 0
DWIDTH 7 0
BBX 6 6 1 0
BITMAP
3c
44
48
88
b8
ec
ENDCHAR
STARTCHAR b
ENCODING 98
SWIDTH 596 0
DWIDTH 7 0
BBX 6 9 1 0
BITMAP
60
20
40
5c
64
64
48
88
f0
ENDCHAR
STARTCHAR c
ENCODING 99
SWIDTH 487 0
DWIDTH 5 0
BBX 5 6 1 0
BITMAP
38
48
80
80
80
70
ENDCHAR
STARTCHAR d
ENCODING 100
SWIDTH 608 0
DWIDTH 7 0
BBX 6 9 1 0
BITMAP
0c
04
04
38
48
48
88
b8
e8
ENDCHAR
STARTCHAR e
ENCODING 101
SWIDTH 518 0
DWIDTH 6 0
BBX 5 6 1 0
BITMAP
38
48
90
e0
88
70
ENDCHAR
STARTCHAR f
ENCODING 102
SWIDTH 380 0
DWIDTH 4 0
BBX 5 11 1 -2
BITMAP
18
28
20
70
40
40
40
40
c0
80
80
ENDCHAR
STARTCHAR g
ENCODING 103
SWIDTH 602 0
DWIDTH 7 0
BBX 6 8 1 -2
BITMAP
1c
24
44
48
d8
68
88
f0
ENDCHAR
STARTCHAR h
ENCODING 104
SWIDTH 631 0
DWIDTH 7 0
BBX 6 9 1 0
BITMAP
60
20
40
5c
74
44
48
88
8c
ENDCHAR
STARTCHAR i
ENCODING 105
SWIDTH 289 0
DWIDTH 3 0
BBX 3 9 1 0
BITMAP
20
00
00
e0
40
40
40
80
c0
ENDCHAR
STARTCHAR j
ENCODING 106
SWIDTH 343 0
DWIDTH 4 0
BBX 5 11 0 -2
BITMAP
08
00
00
18
10
10
10
10
10
a0
c0
ENDCHAR
STARTCHAR k
ENCODING 107
SWIDTH 560 0
DWIDTH 6 0
BBX 6 9 1 0
BITMAP
60
20
40
44
58
60
70
98
8c
ENDCHAR
STARTCHAR l
ENCODING 108
SWIDTH 289 0
DWIDTH 3 0
BBX 3 9 1 0
BITMAP
60
20
40
40
40
40
40
80
c0
ENDCHAR
STARTCHAR m
ENCODING 109
SWIDTH 944 0
DWIDTH 10 0
BBX 9 6 1 0
BITMAP
db80
6e80
6c80
4900
8900
9980
ENDCHAR
STARTCHAR n
ENCODING 110
SWIDTH 631 0
DWIDTH 7 0
BBX 6 6 1 0
BITMAP
dc
54
64
48
88
8c
ENDCHAR
STARTCHAR o
ENCODING 111
SWIDTH 560 0
DWIDTH 6 0
BBX 5 6 1 0
BITMAP
38
48
c8
88
98
f0
ENDCHAR
STARTCHAR p
ENCODING 112
SWIDTH 608 0
DWIDTH 7 0
BBX 6 8 1 -2
BITMAP
dc
74
64
48
48
f0
80
80
ENDCHAR
STARTCHAR q
ENCODING 113
SWIDTH 599 0
DWIDTH 7 0
BBX 6 8 1 -2
BITMAP
3c
44
48
88
b8
e8
08
10
ENDCHAR
STARTCHAR r
ENCODING 114
SWIDTH 470 0
DWIDTH 5 0
BBX 5 6 1 0
BITMAP
d8
68
60
40
80
80
ENDCHAR
STARTCHAR s
ENCODING 115
SWIDTH 440 0
DWIDTH 5 0
BBX 4 6 1 0
BITMAP
70
50
40
20
90
e0
ENDCHAR
STARTCHAR t
ENCODING 116
SWIDTH 355 0
DWIDTH 4 0
BBX 4 9 1 0
BITMAP
20
40
40
f0
40
40
80
80
e0
ENDCHAR
STARTCHAR u
ENCODING 117
SWIDTH 630 0
DWIDTH 7 0
BBX 6 6 1 0
BITMAP
cc
44
4c
98
98
ec
ENDCHAR
STARTCHAR v
ENCODING 118
SWIDTH 558 0
DWIDTH 6 0
BBX 6 6 1 0
BITMAP
c4
44
2c
28
30
20
ENDCHAR
STARTCHAR w
ENCODING 119
SWIDTH 805 0
DWIDTH 9 0
BBX 9 6 1 0
BITMAP
c980
4980
5d00
3600
2600
2400
ENDCHAR
STARTCHAR x
ENCODING 120
SWIDTH 510 0
DWIDTH 6 0
BBX 6 6 0 0
BITMAP
c4
28
30
70
d8
8c
ENDCHAR
STARTCHAR y
ENCODING 121
SWIDTH 558 0
DWIDTH 6 0
BBX 7 8 0 -2
BITMAP
66
22
24
28
18
20
20
c0
ENDCHAR
STARTCHAR z
ENCODING 122
SWIDTH 536 0
DWIDTH 6 0
BBX 6 6 0 0
BITMAP
7c
48
10
20
48
f8
ENDCHAR
STARTCHAR braceleft
ENCODING 123
SWIDTH 337 0
DWIDTH 4 0
BBX 4 11 1 -2
BITMAP
30
20
20
20
40
80
40
40
80
80
c0
ENDCHAR
STARTCHAR bar
ENCODING 124
SWIDTH 241 0
DWIDTH 3 0
BBX 3 11 1 -2
BITMAP
20
20
40
40
40
40
40
40
40
80
80
ENDCHAR
STARTCHAR braceright
ENCODING 125
SWIDTH 337 0
DWIDTH 4 0
BBX 4 11 1 -2
BITMAP
20
10
10
20
20
30
40
40
40
40
c0
ENDCHAR
STARTCHAR asciitilde
ENCODING 126
SWIDTH 608 0
DWIDTH 7 0
BBX 7 3 0 2
BITMAP
62
92
8c
ENDCHAR
STARTCHAR nobreakspace
ENCODING 160
SWIDTH 333 0
DWIDTH 3 0
BBX 1 1 0 0
BITMAP
00
ENDCHAR
STARTCHAR Aogonek
ENCODING 161
SWIDTH 747 0
DWIDTH 8 0
BBX 8 11 0 -2
BITMAP
04
0c
0c
14
32
3e
42
42
c7
18
18
ENDCHAR
STARTCHAR breve
ENCODING 162
SWIDTH 560 0
DWIDTH 6 0
BBX 4 2 3 7
BITMAP
90
e0
ENDCHAR
STARTCHAR Lstroke
ENCODING 163
SWIDTH 572 0
DWIDTH 6 0
BBX 6 9 0 0
BITMAP
38
30
20
30
60
a0
60
44
fc
ENDCHAR
STARTCHAR currency
ENCODING 164
SWIDTH 608 0
DWIDTH 7 0
BBX 8 9 0 0
BITMAP
43
3a
2c
44
44
44
48
74
86
ENDCHAR
STARTCHAR Lcaron
ENCODING 165
SWIDTH 720 0
DWIDTH 8 0
BBX 8 10 0 0
BITMAP
03
79
31
22
20
20
20
40
44
fc
ENDCHAR
STARTCHAR Sacute
ENCODING 166
SWIDTH 549 0
DWIDTH 6 0
BBX 6 12 1 0
BITMAP
0c
10
00
3c
64
44
20
18
08
8c
88
f0
ENDCHAR
STARTCHAR section
ENCODING 167
SWIDTH 608 0
DWIDTH 7 0
BBX 6 11 1 -2
BITMAP
1c
24
20
30
58
44
34
08
04
88
f8
ENDCHAR
STARTCHAR diaeresis
ENCODING 168
SWIDTH 560 0
DWIDTH 6 0
BBX 3 1 3 8
BITMAP
a0
ENDCHAR
STARTCHAR Scaron
ENCODING 169
SWIDTH 549 0
DWIDTH 6 0
BBX 6 12 1 0
BITMAP
28
10
00
3c
64
44
20
18
08
8c
88
f0
ENDCHAR
STARTCHAR Scedilla
ENCODING 170
SWIDTH 549 0
DWIDTH 6 0
BBX 6 12 1 -3
BITMAP
3c
64
44
20
18
08
8c
88
f0
10
10
30
ENDCHAR
STARTCHAR Tcaron
ENCODING 171
SWIDTH 663 0
DWIDTH 7 0
BBX 7 12 2 0
BITMAP
28
10
00
fe
92
10
30
20
20
20
20
f0
ENDCHAR
STARTCHAR Zacute
ENCODING 172
SWIDTH 633 0
DWIDTH 7 0
BBX 7 12 1 0
BITMAP
06
08
00
3e
24
4c
08
10
20
60
44
fc
ENDCHAR
STARTCHAR hyphen
ENCODING 173
SWIDTH 313 0
DWIDTH 3 0
BBX 3 1 1 3
BITMAP
e0
ENDCHAR
STARTCHAR Zcaron
ENCODING 174
SWIDTH 633 0
DWIDTH 7 0
BBX 7 12 1 0
BITMAP
14
08
00
3e
24
4c
08
10
20
60
44
fc
ENDCHAR
STARTCHAR Zabovedot
ENCODING 175
SWIDTH 633 0
DWIDTH 7 0
BBX 7 11 1 0
BITMAP
08
00
3e
24
4c
08
10
20
60
44
fc
ENDCHAR
STARTCHAR degree
ENCODING 176
SWIDTH 277 0
DWIDTH 3 0
BBX 2 3 2 6
BITMAP
c0
c0
c0
ENDCHAR
STARTCHAR aogonek
ENCODING 177
SWIDTH 608 0
DWIDTH 7 0
BBX 6 8 1 -2
BITMAP
3c
44
48
88
b8
ec
30
30
ENDCHAR
STARTCHAR ogonek
ENCODING 178
SWIDTH 560 0
DWIDTH 6 0
BBX 2 2 2 -2
BITMAP
c0
c0
ENDCHAR
STARTCHAR lstroke
ENCODING 179
SWIDTH 289 0
DWIDTH 3 0
BBX 4 9 0 0
BITMAP
70
20
20
20
f0
40
40
40
e0
ENDCHAR
STARTCHAR acute
ENCODING 180
SWIDTH 560 0
DWIDTH 6 0
BBX 3 2 4 7
BITMAP
60
80
ENDCHAR
STARTCHAR lcaron
ENCODING 181
SWIDTH 540 0
DWIDTH 6 0
BBX 6 10 1 0
BITMAP
0c
64
24
48
40
40
40
40
80
c0
ENDCHAR
STARTCHAR sacute
ENCODING 182
SWIDTH 440 0
DWIDTH 5 0
BBX 5 9 1 0
BITMAP
18
20
00
70
50
40
20
90
e0
ENDCHAR
STARTCHAR caron
ENCODING 183
SWIDTH 560 0
DWIDTH 6 0
BBX 3 2 4 7
BITMAP
a0
40
ENDCHAR
STARTCHAR cedilla
ENCODING 184
SWIDTH 560 0
DWIDTH 6 0
BBX 2 3 2 -2
BITMAP
40
40
c0
ENDCHAR
STARTCHAR scaron
ENCODING 185
SWIDTH 440 0
DWIDTH 5 0
BBX 4 9 1 0
BITMAP
50
20
00
70
50
40
20
90
e0
ENDCHAR
STARTCHAR scedilla
ENCODING 186
SWIDTH 440 0
DWIDTH 5 0
BBX 4 9 1 -3
BITMAP
70
50
40
20
90
e0
20
20
60
ENDCHAR
STARTCHAR tcaron
ENCODING 187
SWIDTH 540 0
DWIDTH 6 0
BBX 6 11 1 0
BITMAP
0c
04
24
48
40
f0
40
40
80
80
e0
ENDCHAR
STARTCHAR zacute
ENCODING 188
SWIDTH 536 0
DWIDTH 6 0
BBX 6 9 0 0
BITMAP
0c
10
00
7c
48
10
20
48
f8
ENDCHAR
STARTCHAR doubleacute
ENCODING 189
SWIDTH 560 0
DWIDTH 6 0
BBX 4 2 3 7
BITMAP
70
c0
ENDCHAR
STARTCHAR zcaron
ENCODING 190
SWIDTH 536 0
DWIDTH 6 0
BBX 6 9 0 0
BITMAP
28
10
00
7c
48
10
20
48
f8
ENDCHAR
STARTCHAR zabovedot
ENCODING 191
SWIDTH 536 0
DWIDTH 6 0
BBX 6 8 0 0
BITMAP
10
00
7c
48
10
20
48
f8
ENDCHAR
STARTCHAR Racute
ENCODING 192
SWIDTH 686 0
DWIDTH 8 0
BBX 7 12 0 0
BITMAP
0c
10
00
7c
26
22
24
38
68
48
44
e6
ENDCHAR
STARTCHAR Aacute
ENCODING 193
SWIDTH 747 0
DWIDTH 8 0
BBX 8 11 0 0
BITMAP
03
04
04
0c
0c
14
32
3e
42
42
c7
ENDCHAR
STARTCHAR Acircumflex
ENCODING 194
SWIDTH 747 0
DWIDTH 8 0
BBX 8 11 0 0
BITMAP
04
0a
04
0c
0c
14
32
3e
42
42
c7
ENDCHAR
STARTCHAR Abreve
ENCODING 195
SWIDTH 747 0
DWIDTH 8 0
BBX 8 12 0 0
BITMAP
12
1c
00
04
0c
0c
14
32
3e
42
42
c7
ENDCHAR
STARTCHAR Adiaeresis
ENCODING 196
SWIDTH 747 0
DWIDTH 8 0
BBX 8 10 0 0
BITMAP
0a
04
0c
0c
14
32
3e
42
42
c7
ENDCHAR
STARTCHAR Lacute
ENCODING 197
SWIDTH 572 0
DWIDTH 6 0
BBX 6 12 0 0
BITMAP
18
20
00
78
30
20
20
20
20
40
44
fc
ENDCHAR
STARTCHAR Cacute
ENCODING 198
SWIDTH 714 0
DWIDTH 8 0
BBX 7 12 1 0
BITMAP
06
08
00
1e
22
40
c0
80
80
80
c4
78
ENDCHAR
STARTCHAR Ccedilla
ENCODING 199
SWIDTH 714 0
DWIDTH 8 0
BBX 7 11 1 -2
BITMAP
1e
22
40
c0
80
80
80
c4
78
20
60
ENDCHAR
STARTCHAR Ccaron
ENCODING 200
SWIDTH 714 0
DWIDTH 8 0
BBX 7 12 1 0
BITMAP
14
08
00
1e
22
40
c0
80
80
80
c4
78
ENDCHAR
STARTCHAR Eacute
ENCODING 201
SWIDTH 569 0
DWIDTH 6 0
BBX 7 11 0 0
BITMAP
06
08
3e
32
20
24
3c
28
60
44
fc
ENDCHAR
STARTCHAR Eogonek
ENCODING 202
SWIDTH 569 0
DWIDTH 6 0
BBX 7 11 0 -2
BITMAP
3e
32
20
24
3c
28
60
44
fc
18
18
ENDCHAR
STARTCHAR Ediaeresis
ENCODING 203
SWIDTH 569 0
DWIDTH 6 0
BBX 7 10 0 0
BITMAP
14
3e
32
20
24
3c
28
60
44
fc
ENDCHAR
STARTCHAR Ecaron
ENCODING 204
SWIDTH 569 0
DWIDTH 6 0
BBX 7 12 0 0
BITMAP
14
08
00
3e
32
20
24
3c
28
60
44
fc
ENDCHAR
STARTCHAR Iacute
ENCODING 205
SWIDTH 325 0
DWIDTH 4 0
BBX 6 11 0 0
BITMAP
0c
10
38
10
30
20
20
20
60
40
e0
ENDCHAR
STARTCHAR Icircumflex
ENCODING 206
SWIDTH 325 0
DWIDTH 4 0
BBX 5 11 0 0
BITMAP
10
28
38
10
30
20
20
20
60
40
e0
ENDCHAR
STARTCHAR Dcaron
ENCODING 207
SWIDTH 770 0
DWIDTH 8 0
BBX 9 12 0 0
BITMAP
0a00
0400
0000
3f00
3180
2080
2080
2080
2180
6100
4200
fc00
ENDCHAR
STARTCHAR Dstroke
ENCODING 208
SWIDTH 770 0
DWIDTH 8 0
BBX 9 9 0 0
BITMAP
3f00
3180
2080
2080
7880
2180
2100
4200
fc00
ENDCHAR
STARTCHAR Nacute
ENCODING 209
SWIDTH 762 0
DWIDTH 8 0
BBX 10 12 0 0
BITMAP
0300
0400
0000
21c0
3100
3100
2900
2900
2500
4700
4200
e200
ENDCHAR
STARTCHAR Ncaron
ENCODING 210
SWIDTH 762 0
DWIDTH 8 0
BBX 10 12 0 0
BITMAP
0a00
0400
0000
21c0
3100
3100
2900
2900
2500
4700
4200
e200
ENDCHAR
STARTCHAR Oacute
ENCODING 211
SWIDTH 783 0
DWIDTH 9 0
BBX 8 11 1 0
BITMAP
06
08
1e
22
43
c1
83
82
82
c4
78
ENDCHAR
STARTCHAR Ocircumflex
ENCODING 212
SWIDTH 783 0
DWIDTH 9 0
BBX 8 11 1 0
BITMAP
08
14
1e
22
43
c1
83
82
82
c4
78
ENDCHAR
STARTCHAR Odoubleacute
ENCODING 213
SWIDTH 783 0
DWIDTH 9 0
BBX 8 12 1 0
BITMAP
07
0c
00
1e
22
43
c1
83
82
82
c4
78
ENDCHAR
STARTCHAR Odiaeresis
ENCODING 214
SWIDTH 783 0
DWIDTH 9 0
BBX 8 10 1 0
BITMAP
14
1e
22
43
c1
83
82
82
c4
78
ENDCHAR
STARTCHAR multiply
ENCODING 215
SWIDTH 608 0
DWIDTH 7 0
BBX 7 8 0 0
BITMAP
42
64
24
18
30
48
4c
84
ENDCHAR
STARTCHAR Rcaron
ENCODING 216
SWIDTH 686 0
DWIDTH 8 0
BBX 7 12 0 0
BITMAP
28
10
00
7c
26
22
24
38
68
48
44
e6
ENDCHAR
STARTCHAR Uring
ENCODING 217
SWIDTH 727 0
DWIDTH 8 0
BBX 8 12 2 0
BITMAP
18
18
00
e7
42
42
44
84
84
84
c8
78
ENDCHAR
STARTCHAR Uacute
ENCODING 218
SWIDTH 727 0
DWIDTH 8 0
BBX 8 11 2 0
BITMAP
0c
10
e7
42
42
44
84
84
84
c8
78
ENDCHAR
STARTCHAR Udoubleacute
ENCODING 219
SWIDTH 727 0
DWIDTH 8 0
BBX 8 12 2 0
BITMAP
0e
18
00
e7
42
42
44
84
84
84
c8
78
ENDCHAR
STARTCHAR Udiaeresis
ENCODING 220
SWIDTH 727 0
DWIDTH 8 0
BBX 8 10 2 0
BITMAP
14
e7
42
42
44
84
84
84
c8
78
ENDCHAR
STARTCHAR Yacute
ENCODING 221
SWIDTH 663 0
DWIDTH 7 0
BBX 7 11 2 0
BITMAP
0c
10
e6
44
4c
38
30
20
20
20
70
ENDCHAR
STARTCHAR Tcedilla
ENCODING 222
SWIDTH 663 0
DWIDTH 7 0
BBX 7 12 2 -3
BITMAP
fe
92
10
30
20
20
20
20
f0
08
08
18
ENDCHAR
STARTCHAR ssharp
ENCODING 223
SWIDTH 603 0
DWIDTH 7 0
BBX 6 11 1 -2
BITMAP
18
24
28
70
50
48
44
54
f8
80
80
ENDCHAR
STARTCHAR racute
ENCODING 224
SWIDTH 470 0
DWIDTH 5 0
BBX 5 9 1 0
BITMAP
18
20
00
d8
68
60
40
80
80
ENDCHAR
STARTCHAR aacute
ENCODING 225
SWIDTH 608 0
DWIDTH 7 0
BBX 6 8 1 0
BITMAP
0c
10
3c
44
48
88
b8
ec
ENDCHAR
STARTCHAR acircumflex
ENCODING 226
SWIDTH 608 0
DWIDTH 7 0
BBX 6 8 1 0
BITMAP
08
14
3c
44
48
88
b8
ec
ENDCHAR
STARTCHAR abreve
ENCODING 227
SWIDTH 608 0
DWIDTH 7 0
BBX 6 9 1 0
BITMAP
24
38
00
3c
44
48
88
b8
ec
ENDCHAR
STARTCHAR adiaeresis
ENCODING 228
SWIDTH 608 0
DWIDTH 7 0
BBX 6 7 1 0
BITMAP
14
3c
44
48
88
b8
ec
ENDCHAR
STARTCHAR lacute
ENCODING 229
SWIDTH 289 0
DWIDTH 3 0
BBX 4 12 1 0
BITMAP
30
40
00
60
20
40
40
40
40
40
80
c0
ENDCHAR
STARTCHAR cacute
ENCODING 230
SWIDTH 487 0
DWIDTH 5 0
BBX 5 9 1 0
BITMAP
18
20
00
38
48
80
80
80
70
ENDCHAR
STARTCHAR ccedilla
ENCODING 231
SWIDTH 487 0
DWIDTH 5 0
BBX 5 8 1 -2
BITMAP
38
48
80
80
80
70
40
c0
ENDCHAR
STARTCHAR ccaron
ENCODING 232
SWIDTH 487 0
DWIDTH 5 0
BBX 5 9 1 0
BITMAP
50
20
00
38
48
80
80
80
70
ENDCHAR
STARTCHAR eacute
ENCODING 233
SWIDTH 518 0
DWIDTH 6 0
BBX 6 8 1 0
BITMAP
0c
10
38
48
90
e0
88
70
ENDCHAR
STARTCHAR eogonek
ENCODING 234
SWIDTH 518 0
DWIDTH 6 0
BBX 5 8 1 -2
BITMAP
38
48
90
e0
88
70
30
30
ENDCHAR
STARTCHAR ediaeresis
ENCODING 235
SWIDTH 518 0
DWIDTH 6 0
BBX 5 7 1 0
BITMAP
28
38
48
90
e0
88
70
ENDCHAR
STARTCHAR ecaron
ENCODING 236
SWIDTH 518 0
DWIDTH 6 0
BBX 5 9 1 0
BITMAP
50
20
00
38
48
90
e0
88
70
ENDCHAR
STARTCHAR iacute
ENCODING 237
SWIDTH 289 0
DWIDTH 3 0
BBX 4 8 1 0
BITMAP
30
40
c0
40
40
40
80
c0
ENDCHAR
STARTCHAR icircumflex
ENCODING 238
SWIDTH 289 0
DWIDTH 3 0
BBX 3 8 1 0
BITMAP
40
a0
c0
40
40
40
80
c0
ENDCHAR
STARTCHAR dcaron
ENCODING 239
SWIDTH 900 0
DWIDTH 10 0
BBX 9 10 1 0
BITMAP
0180
0c80
0480
0500
3800
4800
4800
8800
b800
e800
ENDCHAR
STARTCHAR dstroke
ENCODING 240
SWIDTH 810 0
DWIDTH 9 0
BBX 8 9 1 0
BITMAP
04
1f
04
38
48
48
88
b8
e8
ENDCHAR
STARTCHAR nacute
ENCODING 241
SWIDTH 631 0
DWIDTH 7 0
BBX 6 9 1 0
BITMAP
18
20
00
dc
54
64
48
88
8c
ENDCHAR
STARTCHAR ncaron
ENCODING 242
SWIDTH 631 0
DWIDTH 7 0
BBX 6 9 1 0
BITMAP
50
20
00
dc
54
64
48
88
8c
ENDCHAR
STARTCHAR oacute
ENCODING 243
SWIDTH 560 0
DWIDTH 6 0
BBX 6 8 1 0
BITMAP
0c
10
38
48
c8
88
98
f0
ENDCHAR
STARTCHAR ocircumflex
ENCODING 244
SWIDTH 560 0
DWIDTH 6 0
BBX 5 8 1 0
BITMAP
10
28
38
48
c8
88
98
f0
ENDCHAR
STARTCHAR odoubleacute
ENCODING 245
SWIDTH 560 0
DWIDTH 6 0
BBX 6 9 1 0
BITMAP
1c
30
00
38
48
c8
88
98
f0
ENDCHAR
STARTCHAR odiaeresis
ENCODING 246
SWIDTH 560 0
DWIDTH 6 0
BBX 5 7 1 0
BITMAP
28
38
48
c8
88
98
f0
ENDCHAR
STARTCHAR division
ENCODING 247
SWIDTH 608 0
DWIDTH 7 0
BBX 6 6 1 0
BITMAP
10
00
00
fc
00
20
ENDCHAR
STARTCHAR rcaron
ENCODING 248
SWIDTH 470 0
DWIDTH 5 0
BBX 5 9 1 0
BITMAP
50
20
00
d8
68
60
40
80
80
ENDCHAR
STARTCHAR uring
ENCODING 249
SWIDTH 630 0
DWIDTH 7 0
BBX 6 9 1 0
BITMAP
30
30
00
cc
44
4c
98
98
ec
ENDCHAR
STARTCHAR uacute
ENCODING 250
SWIDTH 630 0
DWIDTH 7 0
BBX 6 8 1 0
BITMAP
0c
10
cc
44
4c
98
98
ec
ENDCHAR
STARTCHAR udoubleacute
ENCODING 251
SWIDTH 630 0
DWIDTH 7 0
BBX 6 9 1 0
BITMAP
1c
30
00
cc
44
4c
98
98
ec
ENDCHAR
STARTCHAR udiaeresis
ENCODING 252
SWIDTH 630 0
DWIDTH 7 0
BBX 6 7 1 0
BITMAP
14
cc
44
4c
98
98
ec
ENDCHAR
STARTCHAR yacute
ENCODING 253
SWIDTH 558 0
DWIDTH 6 0
BBX 7 10 0 -2
BITMAP
06
08
66
22
24
28
18
20
20
c0
ENDCHAR
STARTCHAR tcedilla
ENCODING 254
SWIDTH 355 0
DWIDTH 4 0
BBX 4 12 1 -3
BITMAP
20
40
40
f0
40
40
80
80
e0
20
20
60
ENDCHAR
STARTCHAR abovedot
ENCODING 255
SWIDTH 560 0
DWIDTH 6 0
BBX 1 1 4 8
BITMAP
80
ENDCHAR
ENDFONT
